<svg xmlns="http://www.w3.org/2000/svg" viewBox="0 0 512 512" width="512" height="512"><defs><style>.fil4{fill:none}</style></defs><g id="logo"><path fill="#86b817" d="M334.5 404.875h-67.875a50.468 50.468 0 0 0 3.687 1.875c3.937 1.75 9.187 3.313 12.313 5.813 2.625 2.062 3.812 4.812 4.812 7.688H334.5c5.375 0 8.062-2.438 8.062-7.312 0-5.375-2.687-8.062-8.062-8.062z"/><path fill="#f5af02" d="M252.875 404.875c-16.688 0-27.438-3.375-32.312-10-1.812-2.563-3.188-6.75-4.188-12.5-1.062-5.75-1.563-13.125-1.563-22.125v-5.875c-2.125 3.188-4.687 6.125-8.563 8.375-5.938 3.375-14.875 5.125-21.875 8.312-5 2.25-9 5.25-12.687 8.5 3.5 13.813 11.188 23.75 23.125 29.875 13.063 7.187 32.437 10.812 58.062 10.812h27.875c-.937-2.875-2.187-5.625-4.75-7.688-3.188-2.5-8.437-4.063-12.375-5.813a50.065 50.065 0 0 1-3.687-1.875h-7.063z"/><path fill="#0064d2" d="M206.25 356.875c3.875-2.25 6.437-5.188 8.563-8.437v-153.25c-.937 1.5-2.062 2.937-3.375 4.188-4.313 4.125-11.125 6.312-18.062 8.312-7 1.937-14.25 3.687-18.812 6-2.25 1.125-3.875 2.375-5.125 3.687v137c0 7.125.75 13.5 2.25 19.313 3.687-3.25 7.688-6.25 12.687-8.5 7-3.188 15.938-4.938 21.875-8.312z"/><path fill="#e53238" d="M193.375 202.187c6.938-2 13.75-4.188 18.062-8.312 1.312-1.25 2.438-2.687 3.375-4.188v-85.25C213.5 96 205.937 91.812 192.124 91.812c-14.063 0-21.5 4.188-22.25 12.625h-.437v107.438c1.25-1.312 2.875-2.563 5.125-3.687 4.562-2.313 11.812-4.063 18.812-6z"/><path stroke="#1c1b17" stroke-width="16" class="fil4" d="M480.375 256A224.375 224.375 0 0 1 256 480.375 224.375 224.375 0 0 1 31.625 256a224.375 224.375 0 0 1 448.75 0z"/><path stroke="#1c1b17" stroke-width="5" class="fil4" d="M509.5 256A253.5 253.5 0 0 1 256 509.5 253.5 253.5 0 0 1 2.5 256a253.5 253.5 0 0 1 507 0z"/></g></svg>