<svg xmlns="http://www.w3.org/2000/svg" width="100" viewBox="0 0 100 100"><circle cx="50" cy="50" r="49" fill="none" stroke="#b3b3b3" stroke-width=".7"/><path fill="none" d="M45.963 25.349c-1.332 0-7.428 1.141-9.062 1.276l3.223 3.159c.974.974 2.196 2.365 3.286 3.095 0 .89-.562 3.621-.73 4.631-.257 1.544-.468 3.123-.802 4.558l6.052-3.137c2.696-1.614 1.826-1.139 6.158 1.009l4.126 2.127c-.334-1.435-.545-3.014-.802-4.558-.12-.719-.264-1.452-.401-2.278-.13-.784-.328-1.551-.328-2.352 1.128-.756 3.653-3.45 4.881-4.691.555-.562 1.198-.92 1.629-1.562-1.328-.309-2.989-.436-4.429-.676l-4.632-.601-2.978-6.083c-.279-.557-.853-1.544-.979-2.084l-4.212 8.168z" stroke="#000" stroke-width=".5"/><path d="M37.003 82.819h26.103c1.143 0-.378-5.126-.55-5.576-.623-1.631-1.575-3.149-2.746-4.313-1.728-1.718-1.918-1.862-4.073-2.993-.66-.346-.537-.334-1.154-.048-2.672 1.235-6.271 1.252-8.964.045-.663-.297-.522-.372-1.158-.045-4.144 2.133-6.677 5.136-7.629 9.962-.09.456-.064 1.007-.153 1.581-.08.512-.309 1.387.324 1.387z"/><path fill="#666" d="M15.96 78.957v3.862h16.381c.717 0 .269-.92.454-2.209.366-2.549.555-3.942 1.81-6.314-1.213-1.811-2.346-3.075-4.348-4.052-1.272-.621-2.027 1.3-6.566.316-1.175-.254-1.828-1.315-4.702 1.572-.487.49-.705.699-1.129 1.268-1.121 1.504-1.901 3.49-1.901 5.557zm49.544-4.795c.1.429.236.582.397.935.84 1.838 1.504 4.669 1.461 6.663-.012.564-.134 1.059.405 1.059h16.248c0-4.669.441-6.549-2.415-10.103-.222-.276-.253-.396-.551-.648-4.022-3.404-2.669-1.235-7.022-1.235-3.77 0-2.65-1.604-5.138-.077-1.632 1.002-2.36 1.875-3.385 3.407z"/><path fill="none" d="M50.055 50.864c-1.029 0-2.406.36-3.154.708-3.297 1.534-5.145 5.053-4.336 8.646.95 4.22 5.163 6.783 9.122 5.861 1.374-.32 2.828-1.087 3.801-2.059.476-.476 1.288-1.609 1.573-2.289 2.383-5.675-1.968-10.868-7.006-10.868z" stroke="#000" stroke-width=".8"/><path fill="#666" d="M71.999 36.197c-2.16 0-3.863-.128-5.998-.128.132.496.463.768.74 1.174 3.391 4.969 3.012 2.234 1.157 7.87-.136.413-.4 1.019-.493 1.421.651-.054 2.293-.7 3.015-.942 2.652-.89 2.495-1.003 3.44-.281.941.719 3.337 2.652 4.011 3.009v-5.998c.784-.415 4.362-3.06 4.85-3.191v-.255c-.563-.047-5.264-1.565-5.5-1.774-.244-.217-1.625-4.986-1.774-5.628-.217.145-3.298 4.168-3.446 4.722zm-54.624 2.68v.255c.515.138 4.064 2.775 4.85 3.191v5.998l3.358-2.513c1.794-1.466 1.244-1.151 5.527.265.316.104.461.135.783.237.347.11.339.185.797.224l-.974-2.727c-1.197-3.521-1.49-2.26.739-5.294.298-.406.563-.776.848-1.194.27-.396.673-.809.791-1.251-2.135 0-3.838.128-5.998.128-.148-.554-3.229-4.577-3.446-4.722-.131.563-1.566 5.396-1.711 5.563-.231.266-2.239.837-2.707.994-.683.228-2.193.83-2.856.845z"/><path fill="none" d="M20.488 60.978c0 2.145.138 2.868 1.696 4.431.472.474.877.754 1.499 1.031 3.904 1.739 7.726-1.435 7.726-4.662v-.666c0-3.423-4.626-7.408-9.194-3.733-.761.612-1.727 2.211-1.727 3.6zm48.212.133c0 1.859.493 3.053 1.56 4.167 3.418 3.568 9.361.736 9.361-3.368 0-1.743-.262-3.32-1.634-4.492-2.332-1.991-5.503-2.04-7.59.063-.949.958-1.697 2.126-1.697 3.63z" stroke="#666" stroke-width=".8"/><path d="M52.398 63.187a.205.205 0 0 1 .284-.058.205.205 0 0 1 .058.284l-.342-.226zm-2.343 1.671v-.41l.088-.001.088-.004.087-.007.087-.009.086-.012.085-.015.085-.018.084-.02.083-.023.083-.025.081-.028.08-.03.079-.032.079-.035.077-.037.076-.04.075-.042.074-.044.072-.046.071-.048.069-.051.068-.053.066-.055.064-.057.063-.059.062-.062.059-.063.057-.065.056-.068.054-.069.052-.071.05-.073.342.226-.057.084-.059.081-.062.079-.064.077-.066.075-.068.073-.07.07-.072.068-.074.066-.076.063-.078.061-.079.058-.081.056-.083.053-.085.05-.086.048-.087.045-.089.043-.09.04-.091.037-.093.035-.094.031-.094.029-.096.026-.096.023-.097.02-.098.017-.099.014-.099.011-.1.008-.101.004-.101.002zm0 0a.205.205 0 0 1 0-.41v.41zm-2.689-1.451.343-.225.05.073.052.072.054.07.056.067.058.066.06.064.061.062.063.059.065.058.066.055.068.053.069.051.071.048.072.046.074.044.075.042.077.04.077.037.079.035.08.033.081.03.081.028.083.025.084.023.084.02.085.018.086.015.086.012.087.01.088.007.088.004.088.001v.41l-.101-.002-.101-.005-.1-.008-.1-.011-.099-.014-.098-.017-.097-.02-.097-.023-.096-.026-.095-.029-.094-.032-.093-.035-.091-.037-.09-.04-.089-.043-.087-.045-.086-.048-.085-.051-.083-.053-.081-.056-.08-.058-.078-.061-.076-.063-.074-.066-.072-.068-.07-.07-.068-.072-.066-.075-.064-.078-.062-.079-.059-.081-.057-.084zm0 0a.205.205 0 1 1 .343-.225l-.343.225zm28.263.653a.103.103 0 0 1 .142-.029c.047.031.06.095.029.142l-.171-.113zm-1.467.995v-.205l.056-.001.055-.003.055-.004.055-.006.054-.008.053-.009.053-.011.052-.012.052-.014.052-.016.051-.017.05-.019.05-.02.049-.021.048-.024.048-.025.047-.026.046-.028.046-.029.044-.03.044-.032.042-.033.041-.034.041-.036.04-.037.038-.038.037-.04.036-.041.035-.042.034-.044.032-.044.031-.046.171.113-.035.051-.036.05-.037.048-.039.047-.04.046-.042.044-.042.042-.044.042-.045.04-.046.039-.047.037-.048.036-.05.034-.05.032-.052.031-.053.029-.053.028-.054.026-.055.024-.056.023-.057.021-.057.019-.058.018-.058.016-.059.014-.059.012-.06.01-.061.008-.061.007-.061.005-.061.003-.062.001zm0 0a.102.102 0 1 1 0-.204v.205zm-1.641-.886.171-.112.031.046.032.045.034.044.035.042.036.041.037.04.039.039.04.037.04.036.041.034.043.033.044.032.045.03.045.029.046.028.047.026.047.025.048.023.05.022.05.02.051.019.051.018.052.016.052.014.053.012.053.011.054.009.054.008.055.006.055.004.055.003.056.001v.205l-.062-.001-.062-.003-.062-.005-.061-.007-.061-.009-.06-.01-.059-.012-.059-.014-.058-.016-.058-.018-.057-.019-.056-.021-.056-.023-.055-.024-.055-.026-.053-.028-.052-.029-.052-.031-.051-.032-.05-.034-.048-.036-.047-.037-.047-.039-.045-.04-.044-.042-.043-.043-.042-.045-.04-.046-.039-.047-.038-.048-.036-.05-.035-.051zm0 0a.103.103 0 0 1 .03-.142.103.103 0 0 1 .142.03l-.171.112zm-45.103-.108a.103.103 0 0 1 .142-.029c.047.031.06.095.029.142l-.171-.113zm-1.468.995v-.205l.056-.001.055-.003.055-.004.055-.006.054-.008.053-.009.053-.011.052-.012.052-.014.052-.016.051-.017.05-.019.05-.02.05-.022.048-.023.047-.025.047-.026.046-.028.045-.029.044-.03.044-.032.042-.033.042-.035.04-.036.04-.037.038-.038.037-.04.036-.041.035-.042.034-.044.032-.044.031-.046.171.113-.035.051-.036.05-.037.048-.039.047-.04.046-.042.044-.042.042-.044.042-.045.04-.046.039-.047.037-.048.036-.05.034-.05.032-.052.031-.052.029-.053.028-.054.026-.055.024-.056.023-.056.021-.057.019-.057.018-.058.016-.059.014-.059.012-.06.01-.061.008-.061.007-.061.005-.061.003-.062.001zm0 0a.102.102 0 1 1 0-.204v.205zm-1.641-.886.171-.112.031.046.032.045.034.044.035.042.036.041.037.04.039.039.04.037.041.036.041.034.042.033.044.032.045.03.045.029.046.028.047.026.048.025.048.023.05.022.05.021.051.019.051.018.052.016.052.014.052.012.053.011.054.009.054.008.055.006.055.004.055.003.056.001v.205l-.062-.001-.062-.003-.062-.005-.061-.007-.061-.009-.059-.01-.059-.012-.059-.014-.058-.016-.058-.018-.057-.019-.056-.021-.056-.023-.055-.024-.055-.026-.053-.028-.052-.029-.052-.031-.051-.032-.05-.034-.048-.036-.048-.037-.046-.039-.046-.04-.044-.042-.043-.042-.042-.045-.04-.046-.039-.047-.038-.048-.036-.05-.035-.051zm0 0a.103.103 0 0 1 .03-.142.103.103 0 0 1 .142.03l-.171.112z"/></svg>