<svg xmlns="http://www.w3.org/2000/svg" width="100" fill-rule="evenodd" viewBox="0 0 100 100"><path d="M11.868 48.992c3.33 3.417 7.487 7.672 9.921 10.155l.584.594c3.281 3.359 3.281 3.359 2.21 9.97l-.039.234c-.896 5.52-2.629 16.162-3.349 20.748a259.663 259.663 0 0 0-.73 4.849c-.058.477-.058.516-.058.526 0 .029.01.068.01.097v.019c.01.049.019.088.019.107.01.029.029.068.058.136.01.029.039.068.078.136.019.029.039.058.049.088.01.019.019.029.039.049l.01.01c.039.049.068.088.097.117.039.039.078.078.107.097l.01.01v-.01c.039.029.068.058.107.078.019.01.039.019.058.039.01.01.019.01.029.019.01 0 .019.01.019.01l.068.019c.039.01.097.029.146.039.068.01.127.019.166.029h.029l.068.01.049-.01v-.01c-.068 0-.175-.01-.039-.078.623-.302 1.811-.925 4.118-2.171 5.228-2.823 13.65-7.429 18.031-9.834l.214-.117c.049-.029.097-.058.156-.078 5.744-3.145 5.783-3.116 11.177-.166l16.503 9.035c2.755 1.509 4.06 2.22 4.625 2.531a2 2 0 0 0 .049.029l.204.107c.185.097.38.214.477.253.136.068.292.146.467.224l.117.058c.117.049.214.088.302.117.058.019.146.039.282.068.078.019.117.029.136.029h.01c.01 0 .049 0 .097-.01s.088-.01.127-.019c.058-.019.107-.039.136-.049.049-.029.117-.068.195-.127a1.18 1.18 0 0 0 .195-.175c.039-.049.088-.097.127-.156.049-.068.088-.146.127-.214l.029-.058c.01-.039.029-.078.049-.127a.461.461 0 0 1 .029-.068l.029-.127c0-.01.01-.049.01-.117.01-.088.01-.127.01-.146 0-.039-.01-.136-.117-.847-.166-1.11-.389-2.561-.759-4.849-.341-2.152-.828-5.121-1.324-8.227l-1.996-12.287v-.01l-.01-.039v-.01c0-.019-.01-.049-.01-.068-.467-2.892-.701-4.362-.166-6.056.535-1.714 1.568-2.775 3.622-4.878l.01-.01a.92.92 0 0 1 .136-.136l8.334-8.529c2.23-2.278 4.362-4.469 5.881-6.027a1201.93 1201.93 0 0 0 3.223-3.32l.38-.399c.058-.088.117-.175.166-.253l.107-.185c.019-.039.039-.068.039-.078v-.01a.993.993 0 0 0 .029-.117c.01-.029.01-.049.019-.078.01-.068.019-.117.029-.175v-.01c.01-.088.01-.175.01-.243 0-.039-.01-.097-.019-.185-.01-.068-.019-.136-.039-.204-.01-.029-.01-.058-.019-.078v-.01c0-.01-.01-.019-.01-.029-.01-.01-.01-.019-.039-.058l-.029-.058c-.01-.019-.029-.039-.039-.058-.019-.019-.029-.049-.049-.068l-.029-.029-.01-.01c-.019-.019-.068-.058-.127-.107-.078-.058-.136-.107-.166-.117a1.727 1.727 0 0 0-.224-.107c-.029-.01-.058-.019-.078-.039-.058-.019-.127-.039-.195-.068h-.01c-.068-.019-.156-.039-.72-.136-1.052-.175-2.337-.38-4.547-.72-3.271-.506-8.811-1.353-17.097-2.629l-2.434-.38c-6.328-.974-6.328-.974-9.181-7.049-.497-1.052-1.353-2.882-4.44-9.415a1722.632 1722.632 0 0 0-4.527-9.551c-1.11-2.317-1.753-3.602-2.161-4.372-.039-.068-.068-.146-.107-.214-.029-.058-.039-.088-.049-.107 0-.01-.01-.019-.01-.029l-.058-.058a.825.825 0 0 0-.166-.097 1.02 1.02 0 0 0-.195-.088c-.029-.01-.058-.019-.078-.039h-.029l-.136-.01h-.01c-.039 0-.136.01-.273.019-.127.01-.214.029-.253.039-.058.01-.107.029-.136.039v.01l-.068.029a1.178 1.178 0 0 0-.273.243c-.019.029-.058.088-.321.594-.419.798-1.042 2.084-2.132 4.372-1.451 3.047-3.008 6.367-4.42 9.376-1.626 3.476-3.242 6.932-4.323 9.23-2.785 5.959-2.785 5.959-9.152 6.961l-.263.039c-4.771.75-13.874 2.191-19.482 3.096-2.58.419-3.943.643-4.673.769-.555.097-.662.127-.73.156a1.211 1.211 0 0 0-.185.078v.01c-.078.039-.127.068-.127.068-.029.019-.058.049-.107.097-.049.058-.097.107-.127.146-.039.058-.088.127-.117.204-.019.049-.049.107-.068.195a1.611 1.611 0 0 0-.058.341 2.04 2.04 0 0 0-.019.399v.058c0 .019 0-.01.019.029s.049.088.127.204c.195.253.565.691 1.246 1.431.75.808 1.753 1.869 2.999 3.155 1.324 1.363 2.872 2.96 4.654 4.79zm5.725 47.337c.029.312.088.594.185.876a4.278 4.278 0 0 0 .983 1.597c.224.234.477.438.74.604.263.166.526.292.818.38.292.097.604.156.886.185.282.029.526.029.759 0s.448-.068 5.102-2.58 13.728-7.477 18.275-9.97c4.537-2.483 4.537-2.483 8.626-.243 4.089 2.239 12.268 6.718 16.503 9.035 4.235 2.317 4.527 2.483 4.868 2.668.341.185.72.399 1.139.584.409.185.857.351 1.266.438.409.088.789.107 1.178.058a3.754 3.754 0 0 0 1.207-.37 4.238 4.238 0 0 0 1.139-.867 4.07 4.07 0 0 0 .75-1.09c.175-.37.282-.72.351-1.032.068-.312.088-.584.078-.925-.01-.341-.058-.759-.905-6.046s-2.492-15.442-3.32-20.524c-.828-5.073-.828-5.073 2.726-8.714 3.553-3.641 10.67-10.924 14.292-14.633 3.612-3.709 3.729-3.856 3.885-4.07.156-.214.341-.516.487-.789.146-.282.243-.555.312-.886.068-.341.117-.74.107-1.129a4.43 4.43 0 0 0-.156-1.071 3.71 3.71 0 0 0-.341-.828 3.739 3.739 0 0 0-.584-.789 3.97 3.97 0 0 0-.905-.711 5.962 5.962 0 0 0-1.09-.477c-.351-.107-.672-.166-5.676-.944a8246.124 8246.124 0 0 0-19.54-3.008c-4.849-.75-4.849-.75-7.059-5.452-2.21-4.703-6.64-14.108-8.977-18.995-2.346-4.888-2.609-5.248-2.892-5.52a3.904 3.904 0 0 0-.857-.613 4.716 4.716 0 0 0-.867-.37c-.292-.078-.594-.117-.944-.117s-.759.039-1.12.127c-.37.078-.701.204-1.042.409a4.024 4.024 0 0 0-.974.837c-.302.351-.574.779-2.862 5.598s-6.591 14.02-8.743 18.616c-2.152 4.604-2.152 4.604-7.04 5.373-4.888.769-14.663 2.317-19.764 3.135-5.102.818-5.53.915-5.92 1.061-.389.136-.73.321-1.042.555a4.043 4.043 0 0 0-.847.876c-.253.36-.467.789-.604 1.285a5.354 5.354 0 0 0-.166 1.529c.01.448.088.769.253 1.149.166.38.428.828 1.879 2.405s4.099 4.294 7.711 8.003c3.612 3.709 8.208 8.402 10.505 10.749 2.298 2.346 2.298 2.346 1.451 7.555a5419.305 5419.305 0 0 0-3.388 21.011c-.847 5.384-.847 5.735-.828 6.046zm4.05.857h.01c.058-.01.029 0-.019 0v.01zm54.776-.896c.107.058.195.107.253.136a4.193 4.193 0 0 0-.204-.107l-.049-.029zm.253.136c.224.127.136.078 0 0z"/></svg>